{"title":"Koyelaanchal (2014) DVDScr-XviD-1CD{VikkyMaxx}[SilverRG]","uid":10127554,"size":734959661,"categoryP":"video","categoryS":"movies","magnet":"?xt=urn:btih:33babfb1353611902080daf09606c2011b8ca64a&amp;dn=Koyelaanchal+%282014%29+DVDScr-XviD-1CD%7BVikkyMaxx%7D%5BSilverRG%5D&amp;tr=udp%3A%2F%2Ftracker.openbittorrent.com%3A80&amp;tr=udp%3A%2F%2Fopen.demonii.com%3A1337&amp;tr=udp%3A%2F%2Ftracker.coppersurfer.tk%3A6969&amp;tr=udp%3A%2F%2Fexodus.desync.com%3A6969","seeders":1,"leechers":1,"uploader":"shailendramaxx","files":17,"time":1399794910,"description":"\nVikkyMaxx SilverRG Presents:-\n\n\n\nGeneral:-\n \nComplete name :Koyelaanchal(2014)DVDScr-XviD-1CD{VikkyMaxx}[SilverRG]\nFormat : AVI \nFormat/Info : Audio Video Interleave \nFile size : 691 MiB \nDuration : 2h 18mn \nOverall bit rate : 697 Kbps \n\nVideo:-\n \nID : 0 \nFormat : MPEG-4 Visual \nFormat profile : Advanced Simple@L5 \nFormat settings, BVOP : 2 \nFormat settings, QPel : No \nFormat settings, GMC : No warppoints \nFormat settings, Matrix : Default (H.263) \nCodec ID : XVID \nCodec ID/Hint : XviD \nDuration : 2h 18mn \nBit rate : 610 Kbps \nWidth : 640 pixels \nHeight : 272 pixels \nDisplay aspect ratio : 2.35:1 \nFrame rate : 29.970 fps \nColor space : YUV \nChroma subsampling : 4:2:0 \nBit depth : 8 bits \nScan type : Progressive \nCompression mode : Lossy \nBits/(Pixel*Frame) : 0.117 \nStream size : 605 MiB (87%) \nWriting library : XviD 1.2.1 (UTC 2008-12-04) \n\nAudio:-\n \nID : 1 \nFormat : MPEG Audio \nFormat version : Version 1 \nFormat profile : Layer 3 \nMode : Joint stereo \nMode extension : MS Stereo \nCodec ID : 55 \nCodec ID/Hint : MP3 \nDuration : 2h 18mn \nBit rate mode : Constant \nBit rate : 80.0 Kbps \nChannel(s) : 2 channels \nSampling rate : 32.0 KHz \nCompression mode : Lossy \nStream size : 79.3 MiB (11%) \nAlignment : Aligned on interleaves \nInterleave, duration : 133 ms (4.00 video frames) \nInterleave, preload duration : 216 ms \nTitle : VTS_01_1 T80 3_2ch 448Kbps DELAY 0ms \nWriting library : LAME3.99r \nEncoding settings : -m j -V 4 -q 2 -lowpass 13.5 -b 80 \nLanguage: HINDI\n\n\n\nSCREENS:-\n &lt;a href=&quot;\nhttp://i.imgur.com/vgk1qdz.png&quot; rel=&quot;nofollow&quot; target=&quot;_NEW&quot;&gt;\nhttp://i.imgur.com/vgk1qdz.png&lt;/a&gt;\n &lt;a href=&quot;\nhttp://i.imgur.com/rBK62jl.png&quot; rel=&quot;nofollow&quot; target=&quot;_NEW&quot;&gt;\nhttp://i.imgur.com/rBK62jl.png&lt;/a&gt;\n &lt;a href=&quot;\nhttp://i.imgur.com/EMr3o5Y.png&quot; rel=&quot;nofollow&quot; target=&quot;_NEW&quot;&gt;\nhttp://i.imgur.com/EMr3o5Y.png&lt;/a&gt;\n &lt;a href=&quot;\nhttp://i.imgur.com/xHmyXEm.png&quot; rel=&quot;nofollow&quot; target=&quot;_NEW&quot;&gt;\nhttp://i.imgur.com/xHmyXEm.png&lt;/a&gt;\n &lt;a href=&quot;\nhttp://i.imgur.com/1ojN0wF.png&quot; rel=&quot;nofollow&quot; target=&quot;_NEW&quot;&gt;\nhttp://i.imgur.com/1ojN0wF.png&lt;/a&gt;\n &lt;a href=&quot;\nhttp://i.imgur.com/FbKlj88.png&quot; rel=&quot;nofollow&quot; target=&quot;_NEW&quot;&gt;\nhttp://i.imgur.com/FbKlj88.png&lt;/a&gt;\n &lt;a href=&quot;\nhttp://i.imgur.com/uuZxhsl.png&quot; rel=&quot;nofollow&quot; target=&quot;_NEW&quot;&gt;\nhttp://i.imgur.com/uuZxhsl.png&lt;/a&gt;\n &lt;a href=&quot;\nhttp://i.imgur.com/FEh3CAm.png&quot; rel=&quot;nofollow&quot; target=&quot;_NEW&quot;&gt;\nhttp://i.imgur.com/FEh3CAm.png&lt;/a&gt;\n &lt;a href=&quot;\nhttp://i.imgur.com/FEh3CAm.png&quot; rel=&quot;nofollow&quot; target=&quot;_NEW&quot;&gt;\nhttp://i.imgur.com/FEh3CAm.png&lt;/a&gt;\n &lt;a href=&quot;\nhttp://i.imgur.com/dYomdQC.png[/IMG][/URL]&quot; rel=&quot;nofollow&quot; target=&quot;_NEW&quot;&gt;\nhttp://i.imgur.com/dYomdQC.png[/IMG][/URL]&lt;/a&gt;\n\n\n\n\n\nSAMPLE AND SCREENSHOTS INCLUDED\n\n    \n             \n             ********** PLEASE SEED AS LONG AS YOU CAN AFTER DOWNLOAD **********\n       \n                    ***** THANK YOU REGARDS - VIKKYMAXX (SilverRG) *****\n\t\t\t\t\n\t\t\n\n\n","torrent":{"xt":"urn:btih:33babfb1353611902080daf09606c2011b8ca64a","amp;dn":"Koyelaanchal+%282014%29+DVDScr-XviD-1CD%7BVikkyMaxx%7D%5BSilverRG%5D","amp;tr":["udp%3A%2F%2Ftracker.openbittorrent.com%3A80","udp%3A%2F%2Fopen.demonii.com%3A1337","udp%3A%2F%2Ftracker.coppersurfer.tk%3A6969","udp%3A%2F%2Fexodus.desync.com%3A6969"],"infoHash":"33babfb1353611902080daf09606c2011b8ca64a","infoHashBuffer":{"type":"Buffer","data":[51,186,191,177,53,54,17,144,32,128,218,240,150,6,194,1,27,140,166,74]},"announce":[],"urlList":[]}}